
        <svg xmlns="http://www.w3.org/2000/svg" xmlns:xlink="http://www.w3.org/1999/xlink" version="1.1" width="3240" 
        height="1385.223295672759" viewBox="0 0 3240 1385.223295672759">
			
			<g transform="scale(12) translate(10, 10)">
				<defs id="SvgjsDefs3936"></defs><g id="SvgjsG3937" featureKey="nameFeature-0" transform="matrix(2.08476986794973,0,0,2.08476986794973,-6.067055765812548,-20.848326948004562)" fill="#3490de"><path d="M14.707 19.531 c5.2734 0 9.6484 3.9063 9.6484 10.469 s-4.375 10.469 -9.6484 10.469 c-2.7734 0 -5.1953 -1.1133 -6.3281 -3.0859 l-0.13672 2.6172 l-5.332 0 l0 -30 l5.625 0 l0 12.363 c1.1719 -1.8164 3.5156 -2.832 6.1719 -2.832 z M13.398 35.8008 c2.9883 0 5.332 -2.207 5.332 -5.8008 c0 -3.6133 -2.3438 -5.8203 -5.332 -5.8203 c-2.9688 0 -5.3125 2.3047 -5.3125 5.8203 s2.3242 5.8008 5.3125 5.8008 z M36.9876796875 40.39063 c-6.3867 0 -10.996 -3.8867 -10.996 -10.449 c0 -6.5234 4.5703 -10.41 10.996 -10.41 c6.4648 0 11.016 3.8867 11.016 10.41 c0 6.5625 -4.5703 10.449 -11.016 10.449 z M36.9286796875 35.918 c3.2617 0 5.4883 -2.3828 5.4883 -5.9766 s-2.2266 -5.9766 -5.4883 -5.9766 c-3.1445 0 -5.3516 2.3828 -5.3516 5.9766 s2.207 5.9766 5.3516 5.9766 z M60.576546875 40.39063 c-6.3867 0 -10.996 -3.8867 -10.996 -10.449 c0 -6.5234 4.5703 -10.41 10.996 -10.41 c6.4648 0 11.016 3.8867 11.016 10.41 c0 6.5625 -4.5703 10.449 -11.016 10.449 z M60.517546875 35.918 c3.2617 0 5.4883 -2.3828 5.4883 -5.9766 s-2.2266 -5.9766 -5.4883 -5.9766 c-3.1445 0 -5.3516 2.3828 -5.3516 5.9766 s2.207 5.9766 5.3516 5.9766 z M81.8799140625 40.39063 c-4.5117 0 -8.0078 -1.7773 -8.7305 -5.5859 l4.707 -1.3281 c0.60547 2.1484 2.1289 2.9883 4.0234 2.9883 c1.3867 0 2.8906 -0.42969 2.8516 -2.0117 c-0.019531 -2.0898 -3.1836 -2.2656 -6.3672 -3.3984 c-2.4023 -0.83984 -4.707 -2.1289 -4.707 -5.5078 c0 -4.1211 3.418 -6.0156 7.8711 -6.0156 c3.9063 0 7.168 1.4844 7.9492 5.3125 l-4.3555 0.97656 c-0.60547 -1.875 -1.9336 -2.5391 -3.5742 -2.5391 c-1.4844 0 -2.7539 0.52734 -2.7539 1.7773 c0 1.582 2.3242 1.8945 4.8438 2.5781 c3.1055 0.83984 6.5039 2.1875 6.5039 6.4844 c0 4.6094 -3.9258 6.2695 -8.2617 6.2695 z M100.293 40.39063 c-4.5117 0 -8.0078 -1.7773 -8.7305 -5.5859 l4.707 -1.3281 c0.60547 2.1484 2.1289 2.9883 4.0234 2.9883 c1.3867 0 2.8906 -0.42969 2.8516 -2.0117 c-0.019531 -2.0898 -3.1836 -2.2656 -6.3672 -3.3984 c-2.4023 -0.83984 -4.707 -2.1289 -4.707 -5.5078 c0 -4.1211 3.418 -6.0156 7.8711 -6.0156 c3.9063 0 7.168 1.4844 7.9492 5.3125 l-4.3555 0.97656 c-0.60547 -1.875 -1.9336 -2.5391 -3.5742 -2.5391 c-1.4844 0 -2.7539 0.52734 -2.7539 1.7773 c0 1.582 2.3242 1.8945 4.8438 2.5781 c3.1055 0.83984 6.5039 2.1875 6.5039 6.4844 c0 4.6094 -3.9258 6.2695 -8.2617 6.2695 z M119.1165859375 40 c-3.9063 0 -6.1328 -2.2656 -6.1328 -6.2695 l0 -9.4922 l-3.9453 0 l0 -4.3164 l1.2695 0 c2.1289 0 3.3008 -0.82031 3.3008 -3.8281 l0 -2.6563 l5.0781 0 l0 6.4844 l4.1406 0 l0 4.3164 l-4.1406 0 l0 8.8867 c0 1.7969 0.87891 2.5977 2.3242 2.5977 l1.8164 0 l0 4.2773 l-3.7109 0 z"></path></g><g id="SvgjsG3938" featureKey="sloganFeature-0" transform="matrix(0.5925013000745689,0,0,0.5925013000745689,-0.17775036176970707,81.03749321710052)" fill="#3490de"><path d="M1.78 16.48 l0 -5.32 l-1.48 0 l0 -0.82 l1.48 0 l0 -3.32 l2.18 -1.04 l0 4.36 l1.44 0 l0 0.82 l-1.44 0 l0 5.2 c0 0.78 0.3 1.46 0.68 1.96 c0.22 0.3 0.48 0.52 0.76 0.68 l0 1.1 c-0.46 -0.02 -0.94 -0.12 -1.44 -0.32 c-1.16 -0.48 -2.18 -1.46 -2.18 -3.3 z M6.038499999999999 20 l0 -0.54 c0.68 -0.7 1.06 -1.66 1.06 -2.62 l0 -7.66 c0 -0.96 -0.38 -1.9 -1.06 -2.6 l0 -0.58 l3.24 0 l0 5.08 c0.72 -0.52 1.58 -0.8 2.4 -0.8 c2.36 0 4.62 1.42 4.62 4.88 l0 1.68 c0 0.96 0.34 1.92 1.02 2.62 l0 0.54 l-4.22 0 l0 -0.54 c0.66 -0.7 1.02 -1.66 1.02 -2.6 l0 -1.3 c0 -1.84 -1.26 -5 -3.8 -4.42 c-0.62 0.14 -1.04 0.84 -1.04 1.48 l0 4.24 c0 0.94 0.34 1.9 1.02 2.6 l0 0.54 l-4.26 0 z M26.197 16.94 l1.48 0 c-0.7 1.9 -2.54 3.26 -4.76 3.26 c-2.82 0 -5.06 -2.26 -5.06 -4.98 c0 -2.78 2.24 -5.04 5.06 -5.04 c2.78 0 5.04 2.2 5.08 4.94 l-8.12 0 c0.08 0.24 0.12 0.5 0.2 0.78 c0.64 2.2 2.16 3.78 3.7 3.78 c1.44 0 2.22 -1.36 2.42 -2.74 z M19.777 14.3 l6.14 0 c-0.68 -2.08 -2.28 -3.4 -3.78 -3.4 c-1.52 0 -2.38 1.46 -2.38 2.96 c0 0.14 0 0.3 0.02 0.44 z M34.794000000000004 24.3 l0 -0.58 c0.66 -0.7 1.02 -1.62 1.02 -2.6 l0 -7.58 c0 -0.96 -0.36 -1.9 -1.02 -2.62 l0 -0.58 l2.1 0 c0.6 0 1.14 0.46 1.14 1.04 c0.7 -0.7 1.74 -1.02 2.76 -1.02 c2.78 0 5.26 1.74 5.26 4.86 c0 3.32 -2.48 4.86 -5.26 4.86 c-1.02 0 -1.96 -0.3 -2.76 -0.84 l0 1.9 c0 0.96 0.34 1.88 1.02 2.6 l0 0.56 l-4.26 0 z M38.054 15.9 c0.68 2.24 2.36 3.76 4 3.38 c1.64 -0.4 2.4 -2.5 1.74 -4.72 c-0.68 -2.26 -2.52 -3.68 -4.18 -3.3 s-2.24 2.42 -1.56 4.64 z M46.9925 15.219999999999999 c0 -3.02 2.44 -4.96 5.22 -4.96 c2.82 0 5.32 1.88 5.32 4.96 c0 3.1 -2.5 4.96 -5.32 4.96 c-2.78 0 -5.22 -1.92 -5.22 -4.96 z M49.5525 15.879999999999999 c0.68 2.32 2.34 3.94 3.96 3.56 c1.58 -0.38 2.32 -2.54 1.6 -4.88 c-0.68 -2.28 -2.5 -3.86 -4.14 -3.5 c-1.58 0.36 -2.12 2.48 -1.42 4.82 z M62.171 20 l-3 -7.72 c-0.08 -0.2 -0.16 -0.3 -0.28 -0.44 l-0.88 -0.94 l0 -0.56 l3.78 0 l0 0.56 l-0.26 0.56 c-0.18 0.38 -0.18 0.76 -0.04 1.14 l2.48 6.34 l1.96 -5.04 c0.46 -1.14 0.46 -2.4 0 -3.56 l2.2 0 l3.34 8.64 l2.58 -6.62 c0.18 -0.5 0.08 -1.06 -0.32 -1.4 l0 -0.62 l2.44 0 l0 0.62 l-0.78 0.5 c-0.24 0.16 -0.36 0.36 -0.46 0.62 l-3.06 7.92 l-2.2 0 l-2.66 -6.84 l-2.68 6.84 l-2.16 0 z M84.36949999999999 16.94 l1.48 0 c-0.7 1.9 -2.54 3.26 -4.76 3.26 c-2.82 0 -5.06 -2.26 -5.06 -4.98 c0 -2.78 2.24 -5.04 5.06 -5.04 c2.78 0 5.04 2.2 5.08 4.94 l-8.12 0 c0.08 0.24 0.12 0.5 0.2 0.78 c0.64 2.2 2.16 3.78 3.7 3.78 c1.44 0 2.22 -1.36 2.42 -2.74 z M77.94949999999999 14.3 l6.14 0 c-0.68 -2.08 -2.28 -3.4 -3.78 -3.4 c-1.52 0 -2.38 1.46 -2.38 2.96 c0 0.14 0 0.3 0.02 0.44 z M86.74799999999999 20 l0 -0.5 c0.68 -0.74 1.02 -1.66 1.02 -2.66 l0 -3.3 c0 -0.98 -0.34 -1.92 -1.02 -2.62 l0 -0.58 l3.22 0 l0 1.04 c0.62 -0.62 1.8 -1.1 2.62 -1.1 c0.86 0 1.46 0.32 1.46 0.32 l-0.42 1.82 s-0.9 -0.74 -2 -0.74 c-1.46 0 -1.66 0.98 -1.66 1.24 l0 3.92 c0 1 0.38 1.92 1.02 2.66 l0 0.5 l-4.24 0 z M93.28649999999998 15.08 l0 -0.82 l5.84 0 l0 0.82 l-5.84 0 z M99.66499999999999 15.219999999999999 c0 -3.02 2.44 -4.96 5.22 -4.96 c2.82 0 5.32 1.88 5.32 4.96 c0 3.1 -2.5 4.96 -5.32 4.96 c-2.78 0 -5.22 -1.92 -5.22 -4.96 z M102.22499999999998 15.879999999999999 c0.68 2.32 2.34 3.94 3.96 3.56 c1.58 -0.38 2.32 -2.54 1.6 -4.88 c-0.68 -2.28 -2.5 -3.86 -4.14 -3.5 c-1.58 0.36 -2.12 2.48 -1.42 4.82 z M111.06349999999999 20 l0 -0.54 c0.66 -0.7 1.02 -1.66 1.02 -2.62 l0 -3.32 c0 -0.98 -0.36 -1.92 -1.02 -2.62 l0 -0.56 l3.18 0 l0 1.12 c0.68 -0.38 1.46 -0.62 2.18 -0.62 c2.34 0 3.62 1.42 3.62 4.88 l0 1.12 c0 0.96 0.38 1.92 1.06 2.62 l0 0.54 l-4.28 0 l0 -0.54 c0.68 -0.7 1.06 -1.66 1.06 -2.62 l0 -2.42 c0 -1.56 -1.42 -3.1 -2.82 -2.72 c-0.5 0.14 -0.82 0.62 -0.82 1.14 l0 4.02 c0 0.94 0.4 1.9 1.04 2.6 l0 0.54 l-4.22 0 z M121.38199999999999 15.08 l0 -0.82 l5.84 0 l0 0.82 l-5.84 0 z M136.3205 11.3 l0 -2.08 c0 -0.98 -0.4 -1.92 -1.08 -2.64 l0 -0.58 l3.26 0 l0 14.02 c-0.64 -0.28 -1.3 -0.42 -1.96 -0.42 c-1.16 0 -2.14 0.62 -3.34 0.62 c-2.8 0 -5.46 -2.26 -5.46 -4.98 c0 -2.78 2.16 -5.04 5.46 -5.04 c1.18 0 2.24 0.44 3.12 1.1 z M134.0405 19.7 c1.52 0 2.5 -1.52 2.5 -3.36 c0 -3.06 -2.24 -5.56 -4.16 -5.56 c-1.52 0 -2.36 1.44 -2.36 3.2 c0 0.6 0.1 1.26 0.32 1.94 c0.68 2.2 2.16 3.78 3.7 3.78 z M148.239 16.94 l1.48 0 c-0.7 1.9 -2.54 3.26 -4.76 3.26 c-2.82 0 -5.06 -2.26 -5.06 -4.98 c0 -2.78 2.24 -5.04 5.06 -5.04 c2.78 0 5.04 2.2 5.08 4.94 l-8.12 0 c0.08 0.24 0.12 0.5 0.2 0.78 c0.64 2.2 2.16 3.78 3.7 3.78 c1.44 0 2.22 -1.36 2.42 -2.74 z M141.819 14.3 l6.14 0 c-0.68 -2.08 -2.28 -3.4 -3.78 -3.4 c-1.52 0 -2.38 1.46 -2.38 2.96 c0 0.14 0 0.3 0.02 0.44 z M150.5975 20 l0 -0.54 c0.66 -0.7 1.08 -1.66 1.08 -2.62 l0 -3.7 c0 -0.78 -0.32 -1.46 -0.84 -2 l-0.22 -0.24 l0 -0.56 l3.22 0 l0 1.12 c0.64 -0.38 1.38 -0.62 2.14 -0.62 c1.08 0 1.94 0.3 2.54 1 c0.76 -0.5 1.9 -1 3 -1 c2.34 0 3.62 1.42 3.62 4.88 l0 1.12 c0 0.96 0.36 1.92 1.04 2.62 l0 0.54 l-4.26 0 l0 -0.54 c0.68 -0.7 1.06 -1.66 1.06 -2.62 l0 -2.42 c-0.02 -1.56 -1.4 -3.08 -2.8 -2.68 c-0.38 0.12 -0.9 0.46 -1.18 0.8 c0.4 0.74 0.58 1.82 0.58 3.18 l0 1.12 c0 0.96 0.42 1.92 1.06 2.62 l0 0.54 l-4.26 0 l0 -0.54 c0.68 -0.7 1.04 -1.66 1.04 -2.62 l0 -2.42 c0 -1.56 -1.38 -3.1 -2.82 -2.72 c-0.48 0.14 -0.76 0.62 -0.76 1.14 l0 4.02 c0 0.94 0.32 1.9 0.98 2.6 l0 0.54 l-4.22 0 z M174.616 20 l-0.54 -0.14 c-0.9 -0.24 -1.88 -0.24 -2.72 0.02 c-0.34 0.1 -0.66 0.12 -0.98 0.12 c-1.96 0 -3.52 -1.54 -3.52 -3.48 c0 -1.9 1.56 -3.46 3.52 -3.46 c0.78 0 1.48 0.24 2.02 0.62 l0 -0.02 s0.16 -2.44 -0.92 -2.74 c-1.12 -0.32 -1.52 0.34 -2.34 1.58 l-1.68 -0.02 c0.52 -1.32 1.54 -2.24 2.98 -2.24 c0.54 0 1.1 0.1 1.64 0.26 c0 0 2.54 0.78 2.54 3.16 l0 6.34 z M168.476 17.02 c0.46 1.5 1.6 2.56 2.76 2.3 c1.12 -0.26 1.64 -1.72 1.18 -3.28 c-0.44 -1.48 -1.74 -2.54 -2.86 -2.26 c-1.14 0.28 -1.54 1.72 -1.08 3.24 z M175.8145 20 l0 -0.54 c0.66 -0.7 1.02 -1.66 1.02 -2.62 l0 -3.32 c0 -0.98 -0.36 -1.92 -1.02 -2.62 l0 -0.56 l3.18 0 l0 1.12 c0.68 -0.38 1.46 -0.62 2.18 -0.62 c2.34 0 3.62 1.42 3.62 4.88 l0 1.12 c0 0.96 0.38 1.92 1.06 2.62 l0 0.54 l-4.28 0 l0 -0.54 c0.68 -0.7 1.06 -1.66 1.06 -2.62 l0 -2.42 c0 -1.56 -1.42 -3.1 -2.82 -2.72 c-0.5 0.14 -0.82 0.62 -0.82 1.14 l0 4.02 c0 0.94 0.4 1.9 1.04 2.6 l0 0.54 l-4.22 0 z M194.93300000000002 11.3 l0 -2.08 c0 -0.98 -0.4 -1.92 -1.08 -2.64 l0 -0.58 l3.26 0 l0 14.02 c-0.64 -0.28 -1.3 -0.42 -1.96 -0.42 c-1.16 0 -2.14 0.62 -3.34 0.62 c-2.8 0 -5.46 -2.26 -5.46 -4.98 c0 -2.78 2.16 -5.04 5.46 -5.04 c1.18 0 2.24 0.44 3.12 1.1 z M192.65300000000002 19.7 c1.52 0 2.5 -1.52 2.5 -3.36 c0 -3.06 -2.24 -5.56 -4.16 -5.56 c-1.52 0 -2.36 1.44 -2.36 3.2 c0 0.6 0.1 1.26 0.32 1.94 c0.68 2.2 2.16 3.78 3.7 3.78 z M208.97 20.34 l-0.48 0.44 c-4.68 -4.02 -4.74 -11.66 0 -15.78 c0.22 0.22 0.3 0.26 0.48 0.48 c-3.66 4.24 -3.78 10.5 0 14.86 z M209.44850000000002 24.3 l0 -0.58 c0.66 -0.7 1.02 -1.62 1.02 -2.6 l0 -7.58 c0 -0.96 -0.36 -1.9 -1.02 -2.62 l0 -0.58 l2.1 0 c0.6 0 1.14 0.46 1.14 1.04 c0.7 -0.7 1.74 -1.02 2.76 -1.02 c2.78 0 5.26 1.74 5.26 4.86 c0 3.32 -2.48 4.86 -5.26 4.86 c-1.02 0 -1.96 -0.3 -2.76 -0.84 l0 1.9 c0 0.96 0.34 1.88 1.02 2.6 l0 0.56 l-4.26 0 z M212.70850000000002 15.9 c0.68 2.24 2.36 3.76 4 3.38 c1.64 -0.4 2.4 -2.5 1.74 -4.72 c-0.68 -2.26 -2.52 -3.68 -4.18 -3.3 s-2.24 2.42 -1.56 4.64 z M221.64700000000002 15.219999999999999 c0 -3.02 2.44 -4.96 5.22 -4.96 c2.82 0 5.32 1.88 5.32 4.96 c0 3.1 -2.5 4.96 -5.32 4.96 c-2.78 0 -5.22 -1.92 -5.22 -4.96 z M224.20700000000002 15.879999999999999 c0.68 2.32 2.34 3.94 3.96 3.56 c1.58 -0.38 2.32 -2.54 1.6 -4.88 c-0.68 -2.28 -2.5 -3.86 -4.14 -3.5 c-1.58 0.36 -2.12 2.48 -1.42 4.82 z M241.6655 11.3 l0 -2.08 c0 -0.98 -0.4 -1.92 -1.08 -2.64 l0 -0.58 l3.26 0 l0 14.02 c-0.64 -0.28 -1.3 -0.42 -1.96 -0.42 c-1.16 0 -2.14 0.62 -3.34 0.62 c-2.8 0 -5.46 -2.26 -5.46 -4.98 c0 -2.78 2.16 -5.04 5.46 -5.04 c1.18 0 2.24 0.44 3.12 1.1 z M239.3855 19.7 c1.52 0 2.5 -1.52 2.5 -3.36 c0 -3.06 -2.24 -5.56 -4.16 -5.56 c-1.52 0 -2.36 1.44 -2.36 3.2 c0 0.6 0.1 1.26 0.32 1.94 c0.68 2.2 2.16 3.78 3.7 3.78 z M244.584 20.34 c3.78 -4.36 3.68 -10.62 0 -14.86 c0.18 -0.22 0.26 -0.26 0.44 -0.48 c4.78 4.12 4.72 11.76 0 15.78 c-0.18 -0.2 -0.26 -0.28 -0.44 -0.44 z M264.681 17.48 l1.36 0 c-0.88 1.6 -2.58 2.72 -4.52 2.72 c-2.84 0 -5.56 -1.9 -5.56 -4.98 c0 -3.38 2.72 -5.04 5.56 -5.04 l0.5 0 c1.7 0 3.28 1.1 3.96 2.66 l-2.18 0 c-0.82 -1.26 -1.92 -1.94 -3.02 -1.94 c-1.56 0 -2.46 1.38 -2.46 3.14 c0 3.04 2.14 5.64 4 5.64 c1.2 0 2.08 -0.94 2.36 -2.2 z M266.77950000000004 15.219999999999999 c0 -3.02 2.44 -4.96 5.22 -4.96 c2.82 0 5.32 1.88 5.32 4.96 c0 3.1 -2.5 4.96 -5.32 4.96 c-2.78 0 -5.22 -1.92 -5.22 -4.96 z M269.33950000000004 15.879999999999999 c0.68 2.32 2.34 3.94 3.96 3.56 c1.58 -0.38 2.32 -2.54 1.6 -4.88 c-0.68 -2.28 -2.5 -3.86 -4.14 -3.5 c-1.58 0.36 -2.12 2.48 -1.42 4.82 z M278.1580000000001 20 l0 -0.54 c0.66 -0.7 1.08 -1.66 1.08 -2.62 l0 -3.7 c0 -0.78 -0.32 -1.46 -0.84 -2 l-0.22 -0.24 l0 -0.56 l3.22 0 l0 1.12 c0.64 -0.38 1.38 -0.62 2.14 -0.62 c1.08 0 1.94 0.3 2.54 1 c0.76 -0.5 1.9 -1 3 -1 c2.34 0 3.62 1.42 3.62 4.88 l0 1.12 c0 0.96 0.36 1.92 1.04 2.62 l0 0.54 l-4.26 0 l0 -0.54 c0.68 -0.7 1.06 -1.66 1.06 -2.62 l0 -2.42 c-0.02 -1.56 -1.4 -3.08 -2.8 -2.68 c-0.38 0.12 -0.9 0.46 -1.18 0.8 c0.4 0.74 0.58 1.82 0.58 3.18 l0 1.12 c0 0.96 0.42 1.92 1.06 2.62 l0 0.54 l-4.26 0 l0 -0.54 c0.68 -0.7 1.04 -1.66 1.04 -2.62 l0 -2.42 c0 -1.56 -1.38 -3.1 -2.82 -2.72 c-0.48 0.14 -0.76 0.62 -0.76 1.14 l0 4.02 c0 0.94 0.32 1.9 0.98 2.6 l0 0.54 l-4.22 0 z M294.0165 24.3 l0 -0.58 c0.66 -0.7 1.02 -1.62 1.02 -2.6 l0 -7.58 c0 -0.96 -0.36 -1.9 -1.02 -2.62 l0 -0.58 l2.1 0 c0.6 0 1.14 0.46 1.14 1.04 c0.7 -0.7 1.74 -1.02 2.76 -1.02 c2.78 0 5.26 1.74 5.26 4.86 c0 3.32 -2.48 4.86 -5.26 4.86 c-1.02 0 -1.96 -0.3 -2.76 -0.84 l0 1.9 c0 0.96 0.34 1.88 1.02 2.6 l0 0.56 l-4.26 0 z M297.2765 15.9 c0.68 2.24 2.36 3.76 4 3.38 c1.64 -0.4 2.4 -2.5 1.74 -4.72 c-0.68 -2.26 -2.52 -3.68 -4.18 -3.3 s-2.24 2.42 -1.56 4.64 z M313.995 20 l-0.54 -0.14 c-0.9 -0.24 -1.88 -0.24 -2.72 0.02 c-0.34 0.1 -0.66 0.12 -0.98 0.12 c-1.96 0 -3.52 -1.54 -3.52 -3.48 c0 -1.9 1.56 -3.46 3.52 -3.46 c0.78 0 1.48 0.24 2.02 0.62 l0 -0.02 s0.16 -2.44 -0.92 -2.74 c-1.12 -0.32 -1.52 0.34 -2.34 1.58 l-1.68 -0.02 c0.52 -1.32 1.54 -2.24 2.98 -2.24 c0.54 0 1.1 0.1 1.64 0.26 c0 0 2.54 0.78 2.54 3.16 l0 6.34 z M307.855 17.02 c0.46 1.5 1.6 2.56 2.76 2.3 c1.12 -0.26 1.64 -1.72 1.18 -3.28 c-0.44 -1.48 -1.74 -2.54 -2.86 -2.26 c-1.14 0.28 -1.54 1.72 -1.08 3.24 z M315.19350000000003 20 l0 -0.54 c0.66 -0.7 1.02 -1.66 1.02 -2.62 l0 -3.32 c0 -0.98 -0.36 -1.92 -1.02 -2.62 l0 -0.56 l3.18 0 l0 1.12 c0.68 -0.38 1.46 -0.62 2.18 -0.62 c2.34 0 3.62 1.42 3.62 4.88 l0 1.12 c0 0.96 0.38 1.92 1.06 2.62 l0 0.54 l-4.28 0 l0 -0.54 c0.68 -0.7 1.06 -1.66 1.06 -2.62 l0 -2.42 c0 -1.56 -1.42 -3.1 -2.82 -2.72 c-0.5 0.14 -0.82 0.62 -0.82 1.14 l0 4.02 c0 0.94 0.4 1.9 1.04 2.6 l0 0.54 l-4.22 0 z M325.41200000000003 21.86 l0 -1.86 l0.66 0 l1.28 1.3 s0.42 0.44 0.94 0.44 c0.28 0 0.58 -0.14 0.88 -0.52 l2.5 -3.28 l-3.8 -5.94 c-0.08 -0.14 -0.2 -0.24 -0.32 -0.32 l-1.18 -0.78 l0 -0.56 l4.06 0 l0 0.56 l-0.1 0.12 c-0.32 0.34 -0.38 0.92 -0.1 1.34 l2.52 4.06 l2.72 -3.98 c0.12 -0.18 0.2 -0.4 0.2 -0.62 c0 -0.34 -0.14 -0.66 -0.42 -0.86 l0 -0.62 l2.6 0 l0 0.62 l-0.56 0.34 c-0.12 0.08 -0.22 0.2 -0.3 0.3 l-7.28 10.16 s-1.16 1.36 -2.24 1.36 c-0.6 0 -1.3 -0.32 -2.06 -1.26 z"></path></g>
			</g>
		</svg>
	