<?xml version="1.0" encoding="UTF-8" standalone="no"?>
<svg
   version="1.1"
   width="3240"
   height="1385.223295672759"
   viewBox="0 0 3240 1385.223295672759"
   id="svg2"
   sodipodi:docname="Color Logo - No Subtext.svg"
   inkscape:version="1.4.2 (ebf0e940, 2025-05-08)"
   xmlns:inkscape="http://www.inkscape.org/namespaces/inkscape"
   xmlns:sodipodi="http://sodipodi.sourceforge.net/DTD/sodipodi-0.dtd"
   xmlns="http://www.w3.org/2000/svg"
   xmlns:svg="http://www.w3.org/2000/svg">
  <defs
     id="defs2" />
  <sodipodi:namedview
     id="namedview2"
     pagecolor="#ffffff"
     bordercolor="#000000"
     borderopacity="0.25"
     inkscape:showpageshadow="2"
     inkscape:pageopacity="0.0"
     inkscape:pagecheckerboard="0"
     inkscape:deskcolor="#d1d1d1"
     inkscape:zoom="0.21235308"
     inkscape:cx="1631.7164"
     inkscape:cy="685.17962"
     inkscape:window-width="1648"
     inkscape:window-height="932"
     inkscape:window-x="2192"
     inkscape:window-y="187"
     inkscape:window-maximized="0"
     inkscape:current-layer="g2" />
  <g
     transform="scale(12) translate(10, 10)"
     id="g2">
    <defs
       id="SvgjsDefs3936" />
    <g
       id="SvgjsG3937"
       featureKey="nameFeature-0"
       transform="matrix(2.08476986794973,0,0,2.08476986794973,-6.067055765812548,-20.848326948004562)"
       fill="#3490de">
      <path
         d="M14.707 19.531 c5.2734 0 9.6484 3.9063 9.6484 10.469 s-4.375 10.469 -9.6484 10.469 c-2.7734 0 -5.1953 -1.1133 -6.3281 -3.0859 l-0.13672 2.6172 l-5.332 0 l0 -30 l5.625 0 l0 12.363 c1.1719 -1.8164 3.5156 -2.832 6.1719 -2.832 z M13.398 35.8008 c2.9883 0 5.332 -2.207 5.332 -5.8008 c0 -3.6133 -2.3438 -5.8203 -5.332 -5.8203 c-2.9688 0 -5.3125 2.3047 -5.3125 5.8203 s2.3242 5.8008 5.3125 5.8008 z M36.9876796875 40.39063 c-6.3867 0 -10.996 -3.8867 -10.996 -10.449 c0 -6.5234 4.5703 -10.41 10.996 -10.41 c6.4648 0 11.016 3.8867 11.016 10.41 c0 6.5625 -4.5703 10.449 -11.016 10.449 z M36.9286796875 35.918 c3.2617 0 5.4883 -2.3828 5.4883 -5.9766 s-2.2266 -5.9766 -5.4883 -5.9766 c-3.1445 0 -5.3516 2.3828 -5.3516 5.9766 s2.207 5.9766 5.3516 5.9766 z M60.576546875 40.39063 c-6.3867 0 -10.996 -3.8867 -10.996 -10.449 c0 -6.5234 4.5703 -10.41 10.996 -10.41 c6.4648 0 11.016 3.8867 11.016 10.41 c0 6.5625 -4.5703 10.449 -11.016 10.449 z M60.517546875 35.918 c3.2617 0 5.4883 -2.3828 5.4883 -5.9766 s-2.2266 -5.9766 -5.4883 -5.9766 c-3.1445 0 -5.3516 2.3828 -5.3516 5.9766 s2.207 5.9766 5.3516 5.9766 z M81.8799140625 40.39063 c-4.5117 0 -8.0078 -1.7773 -8.7305 -5.5859 l4.707 -1.3281 c0.60547 2.1484 2.1289 2.9883 4.0234 2.9883 c1.3867 0 2.8906 -0.42969 2.8516 -2.0117 c-0.019531 -2.0898 -3.1836 -2.2656 -6.3672 -3.3984 c-2.4023 -0.83984 -4.707 -2.1289 -4.707 -5.5078 c0 -4.1211 3.418 -6.0156 7.8711 -6.0156 c3.9063 0 7.168 1.4844 7.9492 5.3125 l-4.3555 0.97656 c-0.60547 -1.875 -1.9336 -2.5391 -3.5742 -2.5391 c-1.4844 0 -2.7539 0.52734 -2.7539 1.7773 c0 1.582 2.3242 1.8945 4.8438 2.5781 c3.1055 0.83984 6.5039 2.1875 6.5039 6.4844 c0 4.6094 -3.9258 6.2695 -8.2617 6.2695 z M100.293 40.39063 c-4.5117 0 -8.0078 -1.7773 -8.7305 -5.5859 l4.707 -1.3281 c0.60547 2.1484 2.1289 2.9883 4.0234 2.9883 c1.3867 0 2.8906 -0.42969 2.8516 -2.0117 c-0.019531 -2.0898 -3.1836 -2.2656 -6.3672 -3.3984 c-2.4023 -0.83984 -4.707 -2.1289 -4.707 -5.5078 c0 -4.1211 3.418 -6.0156 7.8711 -6.0156 c3.9063 0 7.168 1.4844 7.9492 5.3125 l-4.3555 0.97656 c-0.60547 -1.875 -1.9336 -2.5391 -3.5742 -2.5391 c-1.4844 0 -2.7539 0.52734 -2.7539 1.7773 c0 1.582 2.3242 1.8945 4.8438 2.5781 c3.1055 0.83984 6.5039 2.1875 6.5039 6.4844 c0 4.6094 -3.9258 6.2695 -8.2617 6.2695 z M119.1165859375 40 c-3.9063 0 -6.1328 -2.2656 -6.1328 -6.2695 l0 -9.4922 l-3.9453 0 l0 -4.3164 l1.2695 0 c2.1289 0 3.3008 -0.82031 3.3008 -3.8281 l0 -2.6563 l5.0781 0 l0 6.4844 l4.1406 0 l0 4.3164 l-4.1406 0 l0 8.8867 c0 1.7969 0.87891 2.5977 2.3242 2.5977 l1.8164 0 l0 4.2773 l-3.7109 0 z"
         id="path1" />
    </g>
  </g>
</svg>
